<mxfile host="app.diagrams.net" modified="2023-11-08T20:19:17.413Z" agent="Mozilla/5.0 (Macintosh; Intel Mac OS X 10_15_7) AppleWebKit/537.36 (KHTML, like Gecko) Chrome/105.0.0.0 Safari/537.36" version="22.0.8" etag="9dRutrpBndo3wrE6ouj6" type="github">
  <diagram name="Page-1" id="_1Y2Wnziiox3-hrEkwvC">
    <mxGraphModel>
      <root>
        <mxCell id="0" />
        <mxCell id="1" parent="0" />
      </root>
    </mxGraphModel>
  </diagram>
</mxfile>
